<svg xmlns="http://www.w3.org/2000/svg" width="1486" height="1056" viewBox="0 0 1486 1056" font-family="ui-sans-serif, -apple-system, 'Segoe UI', Roboto, 'Helvetica Neue', Arial, sans-serif">
<defs><marker id="arrow-open" viewBox="0 0 10 10" refX="9" refY="5" markerWidth="7" markerHeight="7" orient="auto-start-reverse"><path d="M 0 0 L 10 5 L 0 10 z" fill="#5a6b82"/></marker><marker id="arrow-closed" viewBox="0 0 10 10" refX="9" refY="5" markerWidth="7" markerHeight="7" orient="auto-start-reverse"><path d="M 0 0 L 10 5 L 0 10 z" fill="#4a6fa5"/></marker><marker id="arrow-dashed" viewBox="0 0 10 10" refX="9" refY="5" markerWidth="7" markerHeight="7" orient="auto-start-reverse"><path d="M 0 0 L 10 5 L 0 10 z" fill="#9a5ea8"/></marker><marker id="arrow-verify" viewBox="0 0 10 10" refX="9" refY="5" markerWidth="7" markerHeight="7" orient="auto-start-reverse"><path d="M 0 0 L 10 5 L 0 10 z" fill="#b5545f"/></marker><marker id="arrow-satisfy" viewBox="0 0 10 10" refX="9" refY="5" markerWidth="7" markerHeight="7" orient="auto-start-reverse"><path d="M 0 0 L 10 5 L 0 10 z" fill="#c07a34"/></marker><marker id="arrow-flow" viewBox="0 0 10 10" refX="9" refY="5" markerWidth="7" markerHeight="7" orient="auto-start-reverse"><path d="M 0 0 L 10 5 L 0 10 z" fill="#4f9d69"/></marker><marker id="diamond" viewBox="0 0 12 10" refX="11" refY="5" markerWidth="11" markerHeight="9" orient="auto-start-reverse"><path d="M 0 5 L 6 0 L 12 5 L 6 10 z" fill="#4a6fa5"/></marker><marker id="triangle" viewBox="0 0 12 12" refX="11" refY="6" markerWidth="10" markerHeight="10" orient="auto-start-reverse"><path d="M 0 0 L 12 6 L 0 12 z" fill="#ffffff" stroke="#4a6fa5" stroke-width="1.4"/></marker></defs>
<rect width="1486" height="1056" fill="#ffffff"/>
<text x="34" y="38" font-size="19" font-weight="650" fill="#1d2430">FiboProjectionSystem — Requirement Diagram</text>
<text x="34" y="60" font-size="12" fill="#6b7686">9 requirements · 7 verification cases · 13 satisfy · 7 verify</text>
<path d="M 691.0 568.0 C 691.0 442.0 300.0 442.0 300.0 316.0" fill="none" stroke="#c07a34" stroke-width="1.5" stroke-dasharray="5 4" marker-end="url(#arrow-satisfy)"/>
<path d="M 572.0 142.0 C 572.0 181.0 300.0 181.0 300.0 220.0" fill="none" stroke="#c07a34" stroke-width="1.5" stroke-dasharray="5 4" marker-end="url(#arrow-satisfy)"/>
<path d="M 507.0 568.0 C 507.0 442.0 300.0 442.0 300.0 316.0" fill="none" stroke="#c07a34" stroke-width="1.5" stroke-dasharray="5 4" marker-end="url(#arrow-satisfy)"/>
<path d="M 1342.8 142.0 C 1342.8 181.0 599.0 181.0 599.0 220.0" fill="none" stroke="#c07a34" stroke-width="1.5" stroke-dasharray="5 4" marker-end="url(#arrow-satisfy)"/>
<path d="M 1342.8 142.0 C 1342.8 181.0 898.0 181.0 898.0 220.0" fill="none" stroke="#c07a34" stroke-width="1.5" stroke-dasharray="5 4" marker-end="url(#arrow-satisfy)"/>
<path d="M 157.2 142.0 C 157.2 181.0 1200.0 181.0 1200.0 220.0" fill="none" stroke="#c07a34" stroke-width="1.5" stroke-dasharray="5 4" marker-end="url(#arrow-satisfy)"/>
<path d="M 507.0 568.0 C 507.0 434.5 1200.0 434.5 1200.0 301.0" fill="none" stroke="#c07a34" stroke-width="1.5" stroke-dasharray="5 4" marker-end="url(#arrow-satisfy)"/>
<path d="M 1158.8 142.0 C 1158.8 268.0 297.0 268.0 297.0 394.0" fill="none" stroke="#c07a34" stroke-width="1.5" stroke-dasharray="5 4" marker-end="url(#arrow-satisfy)"/>
<path d="M 784.3 142.0 C 784.3 268.0 599.0 268.0 599.0 394.0" fill="none" stroke="#c07a34" stroke-width="1.5" stroke-dasharray="5 4" marker-end="url(#arrow-satisfy)"/>
<path d="M 157.2 142.0 C 157.2 268.0 901.0 268.0 901.0 394.0" fill="none" stroke="#c07a34" stroke-width="1.5" stroke-dasharray="5 4" marker-end="url(#arrow-satisfy)"/>
<path d="M 1342.8 142.0 C 1342.8 268.0 1203.0 268.0 1203.0 394.0" fill="none" stroke="#c07a34" stroke-width="1.5" stroke-dasharray="5 4" marker-end="url(#arrow-satisfy)"/>
<path d="M 353.8 142.0 C 353.8 355.0 264.0 355.0 264.0 568.0" fill="none" stroke="#c07a34" stroke-width="1.5" stroke-dasharray="5 4" marker-end="url(#arrow-satisfy)"/>
<path d="M 974.8 142.0 C 974.8 355.0 264.0 355.0 264.0 568.0" fill="none" stroke="#c07a34" stroke-width="1.5" stroke-dasharray="5 4" marker-end="url(#arrow-satisfy)"/>
<path d="M 934.0 568.0 C 934.0 442.0 300.0 442.0 300.0 316.0" fill="none" stroke="#b5545f" stroke-width="1.5" stroke-dasharray="5 4" marker-end="url(#arrow-verify)"/>
<path d="M 1236.0 568.0 C 1236.0 442.0 300.0 442.0 300.0 316.0" fill="none" stroke="#b5545f" stroke-width="1.5" stroke-dasharray="5 4" marker-end="url(#arrow-verify)"/>
<path d="M 300.0 727.0 C 300.0 514.0 898.0 514.0 898.0 301.0" fill="none" stroke="#b5545f" stroke-width="1.5" stroke-dasharray="5 4" marker-end="url(#arrow-verify)"/>
<path d="M 599.0 727.0 C 599.0 514.0 1200.0 514.0 1200.0 301.0" fill="none" stroke="#b5545f" stroke-width="1.5" stroke-dasharray="5 4" marker-end="url(#arrow-verify)"/>
<path d="M 898.0 727.0 C 898.0 601.0 297.0 601.0 297.0 475.0" fill="none" stroke="#b5545f" stroke-width="1.5" stroke-dasharray="5 4" marker-end="url(#arrow-verify)"/>
<path d="M 1200.0 727.0 C 1200.0 601.0 1203.0 601.0 1203.0 475.0" fill="none" stroke="#b5545f" stroke-width="1.5" stroke-dasharray="5 4" marker-end="url(#arrow-verify)"/>
<path d="M 750.0 886.0 C 750.0 767.5 264.0 767.5 264.0 649.0" fill="none" stroke="#b5545f" stroke-width="1.5" stroke-dasharray="5 4" marker-end="url(#arrow-verify)"/>
<rect x="166.0" y="220.0" width="268.0" height="96.0" rx="8" fill="#fdf4ec" stroke="#c07a34" stroke-width="1.4"/>
<text x="300.0" y="240.0" font-size="10" text-anchor="middle" fill="#c07a34" font-style="italic">«requirement»</text>
<text x="300.0" y="257.0" font-size="12.5" font-weight="600" text-anchor="middle" fill="#7a4a15">R1  AxiomFidelity</text>
<line x1="174.0" y1="265.0" x2="426.0" y2="265.0" stroke="#c07a34" stroke-opacity="0.35"/>
<text x="177.0" y="280.0" font-size="10.5" fill="#7a4a15" fill-opacity="0.85" font-family="ui-monospace, SFMono-Regular, Menlo, Consolas, monospace">Every named class, every subClassOf bet…</text>
<text x="177.0" y="295.0" font-size="10.5" fill="#7a4a15" fill-opacity="0.85" font-family="ui-monospace, SFMono-Regular, Menlo, Consolas, monospace">constrains landedEdges</text>
<rect x="468.0" y="220.0" width="261.9" height="81.0" rx="8" fill="#fdf4ec" stroke="#c07a34" stroke-width="1.4"/>
<text x="599.0" y="240.0" font-size="10" text-anchor="middle" fill="#c07a34" font-style="italic">«requirement»</text>
<text x="599.0" y="257.0" font-size="12.5" font-weight="600" text-anchor="middle" fill="#7a4a15">R2  CitationTraceability</text>
<line x1="476.0" y1="265.0" x2="722.0" y2="265.0" stroke="#c07a34" stroke-opacity="0.35"/>
<text x="479.0" y="280.0" font-size="10.5" fill="#7a4a15" fill-opacity="0.85" font-family="ui-monospace, SFMono-Regular, Menlo, Consolas, monospace">Every graph node carries the unchanged…</text>
<rect x="764.0" y="220.0" width="268.0" height="81.0" rx="8" fill="#fdf4ec" stroke="#c07a34" stroke-width="1.4"/>
<text x="898.0" y="240.0" font-size="10" text-anchor="middle" fill="#c07a34" font-style="italic">«requirement»</text>
<text x="898.0" y="257.0" font-size="12.5" font-weight="600" text-anchor="middle" fill="#7a4a15">R3  Repeatability</text>
<line x1="772.0" y1="265.0" x2="1024.0" y2="265.0" stroke="#c07a34" stroke-opacity="0.35"/>
<text x="775.0" y="280.0" font-size="10.5" fill="#7a4a15" fill-opacity="0.85" font-family="ui-monospace, SFMono-Regular, Menlo, Consolas, monospace">Re-projecting an unchanged source leave…</text>
<rect x="1066.0" y="220.0" width="268.0" height="81.0" rx="8" fill="#fdf4ec" stroke="#c07a34" stroke-width="1.4"/>
<text x="1200.0" y="240.0" font-size="10" text-anchor="middle" fill="#c07a34" font-style="italic">«requirement»</text>
<text x="1200.0" y="257.0" font-size="12.5" font-weight="600" text-anchor="middle" fill="#7a4a15">R4  OfflineOperation</text>
<line x1="1074.0" y1="265.0" x2="1326.0" y2="265.0" stroke="#c07a34" stroke-opacity="0.35"/>
<text x="1077.0" y="280.0" font-size="10.5" fill="#7a4a15" fill-opacity="0.85" font-family="ui-monospace, SFMono-Regular, Menlo, Consolas, monospace">A projection of the vendored FIBO relea…</text>
<rect x="163.0" y="394.0" width="268.0" height="81.0" rx="8" fill="#fdf4ec" stroke="#c07a34" stroke-width="1.4"/>
<text x="297.0" y="414.0" font-size="10" text-anchor="middle" fill="#c07a34" font-style="italic">«requirement»</text>
<text x="297.0" y="431.0" font-size="12.5" font-weight="600" text-anchor="middle" fill="#7a4a15">R5  Retrievability</text>
<line x1="171.0" y1="439.0" x2="423.0" y2="439.0" stroke="#c07a34" stroke-opacity="0.35"/>
<text x="174.0" y="454.0" font-size="10.5" fill="#7a4a15" fill-opacity="0.85" font-family="ui-monospace, SFMono-Regular, Menlo, Consolas, monospace">The loaded graph supports both semantic…</text>
<rect x="465.0" y="394.0" width="268.0" height="96.0" rx="8" fill="#fdf4ec" stroke="#c07a34" stroke-width="1.4"/>
<text x="599.0" y="414.0" font-size="10" text-anchor="middle" fill="#c07a34" font-style="italic">«requirement»</text>
<text x="599.0" y="431.0" font-size="12.5" font-weight="600" text-anchor="middle" fill="#7a4a15">R6  BulkThroughput</text>
<line x1="473.0" y1="439.0" x2="725.0" y2="439.0" stroke="#c07a34" stroke-opacity="0.35"/>
<text x="476.0" y="454.0" font-size="10.5" fill="#7a4a15" fill-opacity="0.85" font-family="ui-monospace, SFMono-Regular, Menlo, Consolas, monospace">The full FIBO release projects in minut…</text>
<text x="476.0" y="469.0" font-size="10.5" fill="#7a4a15" fill-opacity="0.85" font-family="ui-monospace, SFMono-Regular, Menlo, Consolas, monospace">constrains budgetSeconds</text>
<rect x="767.0" y="394.0" width="268.0" height="81.0" rx="8" fill="#fdf4ec" stroke="#c07a34" stroke-width="1.4"/>
<text x="901.0" y="414.0" font-size="10" text-anchor="middle" fill="#c07a34" font-style="italic">«requirement»</text>
<text x="901.0" y="431.0" font-size="12.5" font-weight="600" text-anchor="middle" fill="#7a4a15">R7  SourceIndependence</text>
<line x1="775.0" y1="439.0" x2="1027.0" y2="439.0" stroke="#c07a34" stroke-opacity="0.35"/>
<text x="778.0" y="454.0" font-size="10.5" fill="#7a4a15" fill-opacity="0.85" font-family="ui-monospace, SFMono-Regular, Menlo, Consolas, monospace">The same pipeline projects from a tripl…</text>
<rect x="1069.0" y="394.0" width="268.0" height="81.0" rx="8" fill="#fdf4ec" stroke="#c07a34" stroke-width="1.4"/>
<text x="1203.0" y="414.0" font-size="10" text-anchor="middle" fill="#c07a34" font-style="italic">«requirement»</text>
<text x="1203.0" y="431.0" font-size="12.5" font-weight="600" text-anchor="middle" fill="#7a4a15">R8  InjectionSafety</text>
<line x1="1077.0" y1="439.0" x2="1329.0" y2="439.0" stroke="#c07a34" stroke-opacity="0.35"/>
<text x="1080.0" y="454.0" font-size="10.5" fill="#7a4a15" fill-opacity="0.85" font-family="ui-monospace, SFMono-Regular, Menlo, Consolas, monospace">A Cypher relationship type cannot be pa…</text>
<rect x="130.0" y="568.0" width="268.0" height="81.0" rx="8" fill="#fdf4ec" stroke="#c07a34" stroke-width="1.4"/>
<text x="264.0" y="588.0" font-size="10" text-anchor="middle" fill="#c07a34" font-style="italic">«requirement»</text>
<text x="264.0" y="605.0" font-size="12.5" font-weight="600" text-anchor="middle" fill="#7a4a15">R9  EmbeddingCoherence</text>
<line x1="138.0" y1="613.0" x2="390.0" y2="613.0" stroke="#c07a34" stroke-opacity="0.35"/>
<text x="141.0" y="628.0" font-size="10.5" fill="#7a4a15" fill-opacity="0.85" font-family="ui-monospace, SFMono-Regular, Menlo, Consolas, monospace">The encoder that produced the indexed v…</text>
<rect x="800.0" y="568.0" width="268.0" height="81.0" rx="8" fill="#fbeef0" stroke="#b5545f" stroke-width="1.4"/>
<text x="934.0" y="588.0" font-size="10" text-anchor="middle" fill="#b5545f" font-style="italic">«verification»</text>
<text x="934.0" y="605.0" font-size="12.5" font-weight="600" text-anchor="middle" fill="#78303a">V1  VerifyAxiomCoverage</text>
<line x1="808.0" y1="613.0" x2="1060.0" y2="613.0" stroke="#b5545f" stroke-opacity="0.35"/>
<text x="811.0" y="628.0" font-size="10.5" fill="#78303a" fill-opacity="0.85" font-family="ui-monospace, SFMono-Regular, Menlo, Consolas, monospace">Compare the unfolder&#x27;s emitted count wi…</text>
<rect x="1102.0" y="568.0" width="268.0" height="81.0" rx="8" fill="#fbeef0" stroke="#b5545f" stroke-width="1.4"/>
<text x="1236.0" y="588.0" font-size="10" text-anchor="middle" fill="#b5545f" font-style="italic">«verification»</text>
<text x="1236.0" y="605.0" font-size="12.5" font-weight="600" text-anchor="middle" fill="#78303a">V2  VerifyQuantifierDistinction</text>
<line x1="1110.0" y1="613.0" x2="1362.0" y2="613.0" stroke="#b5545f" stroke-opacity="0.35"/>
<text x="1113.0" y="628.0" font-size="10.5" fill="#78303a" fill-opacity="0.85" font-family="ui-monospace, SFMono-Regular, Menlo, Consolas, monospace">`p some D` and `p only D` between the s…</text>
<rect x="166.0" y="727.0" width="268.0" height="81.0" rx="8" fill="#fbeef0" stroke="#b5545f" stroke-width="1.4"/>
<text x="300.0" y="747.0" font-size="10" text-anchor="middle" fill="#b5545f" font-style="italic">«verification»</text>
<text x="300.0" y="764.0" font-size="12.5" font-weight="600" text-anchor="middle" fill="#78303a">V3  VerifyIdempotence</text>
<line x1="174.0" y1="772.0" x2="426.0" y2="772.0" stroke="#b5545f" stroke-opacity="0.35"/>
<text x="177.0" y="787.0" font-size="10.5" fill="#78303a" fill-opacity="0.85" font-family="ui-monospace, SFMono-Regular, Menlo, Consolas, monospace">Load the same IR three times without cl…</text>
<rect x="468.0" y="727.0" width="261.9" height="81.0" rx="8" fill="#fbeef0" stroke="#b5545f" stroke-width="1.4"/>
<text x="599.0" y="747.0" font-size="10" text-anchor="middle" fill="#b5545f" font-style="italic">«verification»</text>
<text x="599.0" y="764.0" font-size="12.5" font-weight="600" text-anchor="middle" fill="#78303a">V4  VerifyOfflineRun</text>
<line x1="476.0" y1="772.0" x2="722.0" y2="772.0" stroke="#b5545f" stroke-opacity="0.35"/>
<text x="479.0" y="787.0" font-size="10.5" fill="#78303a" fill-opacity="0.85" font-family="ui-monospace, SFMono-Regular, Menlo, Consolas, monospace">Project with followImports = false and…</text>
<rect x="764.0" y="727.0" width="268.0" height="81.0" rx="8" fill="#fbeef0" stroke="#b5545f" stroke-width="1.4"/>
<text x="898.0" y="747.0" font-size="10" text-anchor="middle" fill="#b5545f" font-style="italic">«verification»</text>
<text x="898.0" y="764.0" font-size="12.5" font-weight="600" text-anchor="middle" fill="#78303a">V5  VerifyIndexesOperational</text>
<line x1="772.0" y1="772.0" x2="1024.0" y2="772.0" stroke="#b5545f" stroke-opacity="0.35"/>
<text x="775.0" y="787.0" font-size="10.5" fill="#78303a" fill-opacity="0.85" font-family="ui-monospace, SFMono-Regular, Menlo, Consolas, monospace">After a run, the store reports a VECTOR…</text>
<rect x="1066.0" y="727.0" width="268.0" height="81.0" rx="8" fill="#fbeef0" stroke="#b5545f" stroke-width="1.4"/>
<text x="1200.0" y="747.0" font-size="10" text-anchor="middle" fill="#b5545f" font-style="italic">«verification»</text>
<text x="1200.0" y="764.0" font-size="12.5" font-weight="600" text-anchor="middle" fill="#78303a">V6  VerifyRelTypeSanitisation</text>
<line x1="1074.0" y1="772.0" x2="1326.0" y2="772.0" stroke="#b5545f" stroke-opacity="0.35"/>
<text x="1077.0" y="787.0" font-size="10.5" fill="#78303a" fill-opacity="0.85" font-family="ui-monospace, SFMono-Regular, Menlo, Consolas, monospace">Every interpolated relationship token m…</text>
<rect x="616.0" y="886.0" width="268.0" height="81.0" rx="8" fill="#fbeef0" stroke="#b5545f" stroke-width="1.4"/>
<text x="750.0" y="906.0" font-size="10" text-anchor="middle" fill="#b5545f" font-style="italic">«verification»</text>
<text x="750.0" y="923.0" font-size="12.5" font-weight="600" text-anchor="middle" fill="#78303a">V7  VerifyEncoderCoherence</text>
<line x1="624.0" y1="931.0" x2="876.0" y2="931.0" stroke="#b5545f" stroke-opacity="0.35"/>
<text x="627.0" y="946.0" font-size="10.5" fill="#78303a" fill-opacity="0.85" font-family="ui-monospace, SFMono-Regular, Menlo, Consolas, monospace">The artifact written by a run reloads a…</text>
<rect x="82.2" y="86.0" width="150.0" height="56.0" rx="8" fill="#eef3fb" stroke="#4a6fa5" stroke-width="1.4"/>
<text x="157.2" y="106.0" font-size="10" text-anchor="middle" fill="#4a6fa5" font-style="italic">«SourceAdapter»</text>
<text x="157.2" y="123.0" font-size="12.5" font-weight="600" text-anchor="middle" fill="#1d3557">adapter</text>
<rect x="266.2" y="86.0" width="175.2" height="56.0" rx="8" fill="#eef3fb" stroke="#4a6fa5" stroke-width="1.4"/>
<text x="353.8" y="106.0" font-size="10" text-anchor="middle" fill="#4a6fa5" font-style="italic">«EncoderArtifactManager»</text>
<text x="353.8" y="123.0" font-size="12.5" font-weight="600" text-anchor="middle" fill="#1d3557">artifactMgr</text>
<rect x="475.4" y="86.0" width="193.3" height="56.0" rx="8" fill="#eef3fb" stroke="#4a6fa5" stroke-width="1.4"/>
<text x="572.0" y="106.0" font-size="10" text-anchor="middle" fill="#4a6fa5" font-style="italic">«MetaGraphBuilderComponent»</text>
<text x="572.0" y="123.0" font-size="12.5" font-weight="600" text-anchor="middle" fill="#1d3557">builder</text>
<rect x="702.7" y="86.0" width="163.1" height="56.0" rx="8" fill="#eef3fb" stroke="#4a6fa5" stroke-width="1.4"/>
<text x="784.3" y="106.0" font-size="10" text-anchor="middle" fill="#4a6fa5" font-style="italic">«ProjectionController»</text>
<text x="784.3" y="123.0" font-size="12.5" font-weight="600" text-anchor="middle" fill="#1d3557">controller</text>
<rect x="899.8" y="86.0" width="150.0" height="56.0" rx="8" fill="#eef3fb" stroke="#4a6fa5" stroke-width="1.4"/>
<text x="974.8" y="106.0" font-size="10" text-anchor="middle" fill="#4a6fa5" font-style="italic">«VectorEncoder»</text>
<text x="974.8" y="123.0" font-size="12.5" font-weight="600" text-anchor="middle" fill="#1d3557">encoder</text>
<rect x="1083.8" y="86.0" width="150.0" height="56.0" rx="8" fill="#eef3fb" stroke="#4a6fa5" stroke-width="1.4"/>
<text x="1158.8" y="106.0" font-size="10" text-anchor="middle" fill="#4a6fa5" font-style="italic">«IndexManager»</text>
<text x="1158.8" y="123.0" font-size="12.5" font-weight="600" text-anchor="middle" fill="#1d3557">indexer</text>
<rect x="1267.8" y="86.0" width="150.0" height="56.0" rx="8" fill="#eef3fb" stroke="#4a6fa5" stroke-width="1.4"/>
<text x="1342.8" y="106.0" font-size="10" text-anchor="middle" fill="#4a6fa5" font-style="italic">«GraphLoader»</text>
<text x="1342.8" y="123.0" font-size="12.5" font-weight="600" text-anchor="middle" fill="#1d3557">loader</text>
<rect x="432.0" y="568.0" width="150.0" height="56.0" rx="8" fill="#eef3fb" stroke="#4a6fa5" stroke-width="1.4"/>
<text x="507.0" y="588.0" font-size="10" text-anchor="middle" fill="#4a6fa5" font-style="italic">«TboxReader»</text>
<text x="507.0" y="605.0" font-size="12.5" font-weight="600" text-anchor="middle" fill="#1d3557">reader</text>
<rect x="616.0" y="568.0" width="150.0" height="56.0" rx="8" fill="#eef3fb" stroke="#4a6fa5" stroke-width="1.4"/>
<text x="691.0" y="588.0" font-size="10" text-anchor="middle" fill="#4a6fa5" font-style="italic">«AxiomUnfolder»</text>
<text x="691.0" y="605.0" font-size="12.5" font-weight="600" text-anchor="middle" fill="#1d3557">unfolder</text>
<rect x="34" y="1024.0" width="15" height="12" rx="3" fill="#fdf4ec" stroke="#c07a34" stroke-width="1.2"/>
<text x="55" y="1034.0" font-size="11" fill="#4a5566">requirement</text>
<rect x="132.2" y="1024.0" width="15" height="12" rx="3" fill="#fbeef0" stroke="#b5545f" stroke-width="1.2"/>
<text x="153.2" y="1034.0" font-size="11" fill="#4a5566">verification case</text>
<rect x="267.6" y="1024.0" width="15" height="12" rx="3" fill="#eef3fb" stroke="#4a6fa5" stroke-width="1.2"/>
<text x="288.6" y="1034.0" font-size="11" fill="#4a5566">satisfying part</text>
<rect x="390.6" y="1024.0" width="15" height="12" rx="3" fill="#fdf4ec" stroke="#c07a34" stroke-width="1.2"/>
<text x="411.6" y="1034.0" font-size="11" fill="#4a5566">amber edge = satisfies</text>
<rect x="557.0" y="1024.0" width="15" height="12" rx="3" fill="#fbeef0" stroke="#b5545f" stroke-width="1.2"/>
<text x="578.0" y="1034.0" font-size="11" fill="#4a5566">red edge = verifies</text>
</svg>