<svg xmlns="http://www.w3.org/2000/svg" width="985" height="1035" viewBox="0 0 985 1035" font-family="ui-sans-serif, -apple-system, 'Segoe UI', Roboto, 'Helvetica Neue', Arial, sans-serif">
<defs><marker id="arrow-open" viewBox="0 0 10 10" refX="9" refY="5" markerWidth="7" markerHeight="7" orient="auto-start-reverse"><path d="M 0 0 L 10 5 L 0 10 z" fill="#5a6b82"/></marker><marker id="arrow-closed" viewBox="0 0 10 10" refX="9" refY="5" markerWidth="7" markerHeight="7" orient="auto-start-reverse"><path d="M 0 0 L 10 5 L 0 10 z" fill="#4a6fa5"/></marker><marker id="arrow-dashed" viewBox="0 0 10 10" refX="9" refY="5" markerWidth="7" markerHeight="7" orient="auto-start-reverse"><path d="M 0 0 L 10 5 L 0 10 z" fill="#9a5ea8"/></marker><marker id="arrow-verify" viewBox="0 0 10 10" refX="9" refY="5" markerWidth="7" markerHeight="7" orient="auto-start-reverse"><path d="M 0 0 L 10 5 L 0 10 z" fill="#b5545f"/></marker><marker id="arrow-satisfy" viewBox="0 0 10 10" refX="9" refY="5" markerWidth="7" markerHeight="7" orient="auto-start-reverse"><path d="M 0 0 L 10 5 L 0 10 z" fill="#c07a34"/></marker><marker id="arrow-flow" viewBox="0 0 10 10" refX="9" refY="5" markerWidth="7" markerHeight="7" orient="auto-start-reverse"><path d="M 0 0 L 10 5 L 0 10 z" fill="#4f9d69"/></marker><marker id="diamond" viewBox="0 0 12 10" refX="11" refY="5" markerWidth="11" markerHeight="9" orient="auto-start-reverse"><path d="M 0 5 L 6 0 L 12 5 L 6 10 z" fill="#4a6fa5"/></marker><marker id="triangle" viewBox="0 0 12 12" refX="11" refY="6" markerWidth="10" markerHeight="10" orient="auto-start-reverse"><path d="M 0 0 L 12 6 L 0 12 z" fill="#ffffff" stroke="#4a6fa5" stroke-width="1.4"/></marker></defs>
<rect width="985" height="1035" fill="#ffffff"/>
<text x="34" y="38" font-size="19" font-weight="650" fill="#1d2430">ProjectionRun — State Machine Diagram</text>
<text x="34" y="60" font-size="12" fill="#6b7686">8 states · 9 transitions</text>
<path d="M 750.0 142.0 C 750.0 181.0 750.0 181.0 750.0 220.0" fill="none" stroke="#4f9d69" stroke-width="1.5" marker-end="url(#arrow-flow)"/>
<rect x="731.0" y="172.0" width="38.0" height="15" rx="7" fill="#ffffff" fill-opacity="0.92"/>
<text x="750.0" y="183.0" font-size="10" text-anchor="middle" fill="#4f9d69">start</text>
<path d="M 750.0 276.0 C 750.0 315.0 750.0 315.0 750.0 354.0" fill="none" stroke="#4f9d69" stroke-width="1.5" marker-end="url(#arrow-flow)"/>
<path d="M 750.0 410.0 C 750.0 449.0 750.0 449.0 750.0 488.0" fill="none" stroke="#4f9d69" stroke-width="1.5" marker-end="url(#arrow-flow)"/>
<rect x="708.6" y="440.0" width="82.8" height="15" rx="7" fill="#ffffff" fill-opacity="0.92"/>
<text x="750.0" y="451.0" font-size="10" text-anchor="middle" fill="#4f9d69">options.embed</text>
<path d="M 750.0 410.0 C 750.0 516.0 750.0 516.0 750.0 622.0" fill="none" stroke="#4f9d69" stroke-width="1.5" marker-end="url(#arrow-flow)"/>
<path d="M 750.0 544.0 C 750.0 583.0 750.0 583.0 750.0 622.0" fill="none" stroke="#4f9d69" stroke-width="1.5" marker-end="url(#arrow-flow)"/>
<path d="M 750.0 678.0 C 750.0 717.0 750.0 717.0 750.0 756.0" fill="none" stroke="#4f9d69" stroke-width="1.5" marker-end="url(#arrow-flow)"/>
<path d="M 750.0 812.0 C 750.0 851.0 842.0 851.0 842.0 890.0" fill="none" stroke="#4f9d69" stroke-width="1.5" marker-end="url(#arrow-flow)"/>
<rect x="740.6" y="842.0" width="110.8" height="15" rx="7" fill="#ffffff" fill-opacity="0.92"/>
<text x="796.0" y="853.0" font-size="10" text-anchor="middle" fill="#4f9d69">landed == unfolded</text>
<path d="M 750.0 812.0 C 750.0 851.0 658.0 851.0 658.0 890.0" fill="none" stroke="#4f9d69" stroke-width="1.5" marker-end="url(#arrow-flow)"/>
<rect x="648.6" y="842.0" width="110.8" height="15" rx="7" fill="#ffffff" fill-opacity="0.92"/>
<text x="704.0" y="853.0" font-size="10" text-anchor="middle" fill="#4f9d69">landed != unfolded</text>
<path d="M 750.0 276.0 C 750.0 583.0 658.0 583.0 658.0 890.0" fill="none" stroke="#4f9d69" stroke-width="1.5" marker-end="url(#arrow-flow)"/>
<rect x="675.0" y="86.0" width="150.0" height="56.0" rx="8" fill="#e8f6f6" stroke="#3f8e8e" stroke-width="1.4"/>
<text x="750.0" y="106.0" font-size="10" text-anchor="middle" fill="#3f8e8e" font-style="italic">«state»</text>
<text x="750.0" y="123.0" font-size="12.5" font-weight="600" text-anchor="middle" fill="#1f5757">Idle</text>
<rect x="675.0" y="220.0" width="150.0" height="56.0" rx="8" fill="#e8f6f6" stroke="#3f8e8e" stroke-width="1.4"/>
<text x="750.0" y="240.0" font-size="10" text-anchor="middle" fill="#3f8e8e" font-style="italic">«state»</text>
<text x="750.0" y="257.0" font-size="12.5" font-weight="600" text-anchor="middle" fill="#1f5757">Parsing</text>
<rect x="675.0" y="354.0" width="150.0" height="56.0" rx="8" fill="#e8f6f6" stroke="#3f8e8e" stroke-width="1.4"/>
<text x="750.0" y="374.0" font-size="10" text-anchor="middle" fill="#3f8e8e" font-style="italic">«state»</text>
<text x="750.0" y="391.0" font-size="12.5" font-weight="600" text-anchor="middle" fill="#1f5757">Building</text>
<rect x="675.0" y="488.0" width="150.0" height="56.0" rx="8" fill="#e8f6f6" stroke="#3f8e8e" stroke-width="1.4"/>
<text x="750.0" y="508.0" font-size="10" text-anchor="middle" fill="#3f8e8e" font-style="italic">«state»</text>
<text x="750.0" y="525.0" font-size="12.5" font-weight="600" text-anchor="middle" fill="#1f5757">Encoding</text>
<rect x="675.0" y="622.0" width="150.0" height="56.0" rx="8" fill="#e8f6f6" stroke="#3f8e8e" stroke-width="1.4"/>
<text x="750.0" y="642.0" font-size="10" text-anchor="middle" fill="#3f8e8e" font-style="italic">«state»</text>
<text x="750.0" y="659.0" font-size="12.5" font-weight="600" text-anchor="middle" fill="#1f5757">Loading</text>
<rect x="675.0" y="756.0" width="150.0" height="56.0" rx="8" fill="#e8f6f6" stroke="#3f8e8e" stroke-width="1.4"/>
<text x="750.0" y="776.0" font-size="10" text-anchor="middle" fill="#3f8e8e" font-style="italic">«state»</text>
<text x="750.0" y="793.0" font-size="12.5" font-weight="600" text-anchor="middle" fill="#1f5757">Indexing</text>
<rect x="767.0" y="890.0" width="150.0" height="56.0" rx="8" fill="#e8f6f6" stroke="#3f8e8e" stroke-width="1.4"/>
<text x="842.0" y="910.0" font-size="10" text-anchor="middle" fill="#3f8e8e" font-style="italic">«state»</text>
<text x="842.0" y="927.0" font-size="12.5" font-weight="600" text-anchor="middle" fill="#1f5757">Verified</text>
<rect x="583.0" y="890.0" width="150.0" height="56.0" rx="8" fill="#e8f6f6" stroke="#3f8e8e" stroke-width="1.4"/>
<text x="658.0" y="910.0" font-size="10" text-anchor="middle" fill="#3f8e8e" font-style="italic">«state»</text>
<text x="658.0" y="927.0" font-size="12.5" font-weight="600" text-anchor="middle" fill="#1f5757">Failed</text>
<rect x="34" y="1003.0" width="15" height="12" rx="3" fill="#e8f6f6" stroke="#3f8e8e" stroke-width="1.2"/>
<text x="55" y="1013.0" font-size="11" fill="#4a5566">state</text>
</svg>